<svg xmlns="http://www.w3.org/2000/svg" viewBox="0 0 580 181.7"><path d="M24.72,181.7H0L61.62,0H86.34Z" style="fill:#a2c545"/><path d="M190.93,113.58h19v26.79h-19v36.21H157.68V140.37H89l-1.5-20.93L157.33,9.18h33.6Zm-70.3,0h37.05V54.48l-2.19,3.8Z" style="fill:#a2c545"/><path d="M340.6,107.37q0,34.73-14.38,53.12t-42.1,18.39q-27.39,0-41.88-18T227.4,109.1V78.28q0-35.07,14.49-53.23t42-18.17q27.39,0,41.88,18.05T340.6,76.56Zm-33.25-33.8q0-20.8-5.75-30.24t-17.72-9.54q-11.73,0-17.37,9.08T260.65,71v40.7q0,20.46,5.52,30.47t17.95,9.88q12.18,0,17.6-9.54t5.63-29.2Z" style="fill:#a2c545"/><path d="M461.52,113.58h19v26.79h-19v36.21H428.27V140.37H359.59l-1.5-20.93L427.92,9.18h33.6Zm-70.3,0h37V54.48l-2.19,3.8Z" style="fill:#a2c545"/><path d="M518.38,181.7H493.66L555.28,0H580Z" style="fill:#a2c545"/></svg>