<?xml version="1.0" standalone="no"?>
<!DOCTYPE svg PUBLIC "-//W3C//DTD SVG 20010904//EN"
 "http://www.w3.org/TR/2001/REC-SVG-20010904/DTD/svg10.dtd">
<svg version="1.0" xmlns="http://www.w3.org/2000/svg"
 width="348.000000pt" height="348.000000pt" viewBox="0 0 348.000000 348.000000"
 preserveAspectRatio="xMidYMid meet">
<metadata>
Created by potrace 1.11, written by Peter Selinger 2001-2013
</metadata>
<g transform="translate(0.000000,348.000000) scale(0.100000,-0.100000)"
fill="#000000" stroke="none">
<path d="M3395 3368 c-62 -62 -335 -326 -556 -539 -43 -41 -171 -165 -285
-275 -115 -111 -243 -234 -284 -274 -41 -40 -173 -167 -294 -283 -350 -339
-380 -367 -392 -367 -6 0 -119 52 -250 116 -132 64 -295 143 -364 176 -69 33
-151 74 -183 90 -53 26 -57 27 -47 8 6 -11 149 -229 318 -483 169 -254 353
-530 407 -614 55 -84 102 -152 105 -152 3 0 78 102 166 227 128 179 672 943
757 1062 10 14 49 68 86 120 819 1146 901 1263 889 1259 -2 0 -34 -32 -73 -71z"/>
<path d="M1639 3416 c-2 -2 -44 -6 -92 -10 -49 -3 -91 -7 -95 -10 -4 -2 -29
-6 -57 -10 -27 -3 -92 -17 -143 -31 -454 -122 -857 -450 -1062 -865 -58 -116
-67 -139 -99 -235 -81 -245 -105 -530 -65 -790 25 -162 83 -344 160 -495 187
-372 524 -675 911 -819 96 -36 201 -67 258 -76 11 -2 49 -9 85 -16 137 -24
453 -16 590 16 14 4 39 9 55 12 17 3 50 12 74 20 24 8 51 16 60 18 37 7 182
69 261 112 304 163 545 405 705 707 39 74 110 242 121 286 2 8 12 50 23 93 11
43 22 97 25 120 3 23 9 53 12 67 9 42 12 331 3 400 -30 248 -103 467 -224 674
-22 36 -42 66 -46 66 -4 0 -15 -12 -25 -27 -9 -15 -21 -32 -26 -38 -5 -5 -61
-83 -124 -172 l-115 -162 17 -38 c23 -54 64 -173 59 -173 -2 0 2 -18 10 -40 8
-22 14 -43 14 -45 -1 -3 2 -33 7 -68 48 -392 -86 -772 -371 -1049 -92 -90
-236 -186 -355 -237 -30 -13 -62 -27 -71 -31 -14 -8 -100 -33 -106 -32 -2 1
-17 -4 -35 -9 -155 -45 -399 -45 -580 1 -477 121 -836 506 -922 990 -24 135
-15 367 19 499 66 254 192 463 383 631 161 142 322 225 546 281 118 30 377 34
501 8 178 -38 334 -104 475 -204 l76 -53 163 157 163 157 -42 36 c-100 86
-289 198 -455 268 -33 14 -208 68 -240 74 -141 26 -212 34 -303 35 -58 1 -109
4 -113 6 -3 3 -8 3 -10 1z"/>
</g>
</svg>
