<svg xmlns="http://www.w3.org/2000/svg" xmlns:xlink="http://www.w3.org/1999/xlink" style="display:none"><symbol id="arrow-bottom"><path d="M.32 1.83A1.07 1.07 0 011.09 0h7.82a1.07 1.07 0 01.77 1.83L5.77 5.69a1.12 1.12 0 01-1.54 0z"/></symbol><symbol id="arrow-right"><path d="M1.83 9.68A1.07 1.07 0 010 8.91V1.09A1.07 1.07 0 011.83.32l3.86 3.91a1.12 1.12 0 010 1.54z"/></symbol><symbol id="question-mark"><path d="M6 18a1.45 1.45 0 111.5-1.45A1.48 1.48 0 016 18zm2.36-8a1.84 1.84 0 00-.84.64 1.69 1.69 0 00-.32 1v.82a.29.29 0 01-.3.29H5.1a.29.29 0 01-.3-.29v-.76a4 4 0 01.75-2.35 4.14 4.14 0 012-1.49A3 3 0 009.6 5.23C9.6 3.63 8 2.32 6 2.32S2.4 3.63 2.4 5.23v.27a.29.29 0 01-.3.29H.3A.3.3 0 010 5.5v-.27a4.85 4.85 0 011.82-3.75A6.41 6.41 0 016 0a6.51 6.51 0 014.19 1.48A4.91 4.91 0 0112 5.23 5.25 5.25 0 018.36 10z"/></symbol></svg>