<svg xmlns="http://www.w3.org/2000/svg" xmlns:xlink="http://www.w3.org/1999/xlink" style="display:none"><symbol id="arrow-bottom"><path d="M.32 1.83A1.07 1.07 0 011.09 0h7.82a1.07 1.07 0 01.77 1.83L5.77 5.69a1.12 1.12 0 01-1.54 0z"/></symbol><symbol id="arrow-right"><path d="M1.83 9.68A1.07 1.07 0 010 8.91V1.09A1.07 1.07 0 011.83.32l3.86 3.91a1.12 1.12 0 010 1.54z"/></symbol><symbol id="doc-icon"><path d="M9 7h5.5L9 1.5zM2 0h8l6 6v12a2 2 0 01-2 2H2a2 2 0 01-1.41-.59A2 2 0 010 18V2a2 2 0 012-2zm9 16v-2H2v2zm3-4v-2H2v2z"/></symbol><symbol id="dollar-icon"><path d="M10 0a10 10 0 1010 10A10 10 0 0010 0zm.5 14.85v.71a.19.19 0 01-.18.18h-.63a.18.18 0 01-.18-.18v-.7c-2-.15-2.91-1.28-3-2.51a.17.17 0 01.17-.19h1a.17.17 0 01.17.15 1.72 1.72 0 001.66 1.36v-3.18L9 10.35a2.59 2.59 0 01-2.29-2.52c0-1.62 1.23-2.5 2.81-2.65v-.74a.18.18 0 01.18-.18h.63a.18.18 0 01.18.18v.73a2.84 2.84 0 012.81 2.44.18.18 0 01-.18.19h-1a.17.17 0 01-.14-.15 1.57 1.57 0 00-1.46-1.3v3l.56.13c1.45.36 2.44 1 2.44 2.6s-1.29 2.62-3.04 2.77zM8.09 7.73c0 .57.35 1 1.11 1.28l.33.11V6.35c-.82.11-1.44.57-1.44 1.38zm2.6 3l-.19-.05v3c.95-.08 1.6-.6 1.6-1.48 0-.68-.35-1.13-1.41-1.45z"/></symbol><symbol id="info-mark"><path d="M2.67 21.33h18.66V2.67H2.67zm8-16h2.66V8h-2.66zm0 5.34h2.66v8h-2.66z" fill="none"/><path d="M23.61.39a1.33 1.33 0 00-.94-.39H1.33A1.33 1.33 0 000 1.33v21.34A1.33 1.33 0 001.33 24h21.34A1.33 1.33 0 0024 22.67V1.33a1.33 1.33 0 00-.39-.94zm-2.28 20.94H2.67V2.67h18.66z"/><path d="M10.67 5.33h2.67V8h-2.67zM10.67 10.67h2.67v8h-2.67z"/></symbol><symbol id="question-mark"><path d="M6 18a1.45 1.45 0 111.5-1.45A1.48 1.48 0 016 18zm2.36-8a1.84 1.84 0 00-.84.64 1.69 1.69 0 00-.32 1v.82a.29.29 0 01-.3.29H5.1a.29.29 0 01-.3-.29v-.76a4 4 0 01.75-2.35 4.14 4.14 0 012-1.49A3 3 0 009.6 5.23C9.6 3.63 8 2.32 6 2.32S2.4 3.63 2.4 5.23v.27a.29.29 0 01-.3.29H.3A.3.3 0 010 5.5v-.27a4.85 4.85 0 011.82-3.75A6.41 6.41 0 016 0a6.51 6.51 0 014.19 1.48A4.91 4.91 0 0112 5.23 5.25 5.25 0 018.36 10z"/></symbol><symbol id="quotes-mark"><path d="M17.74 2.83A3.87 3.87 0 1014 7.72a3.32 3.32 0 00.72-.07 5.93 5.93 0 01-.55 1.5A9.47 9.47 0 0110.73 13l.54 1a14.89 14.89 0 005.22-4.62 8.08 8.08 0 001.51-5 4.63 4.63 0 00-.26-1.55zM3.88 0a3.86 3.86 0 100 7.72 3.38 3.38 0 00.72-.07 6 6 0 01-.6 1.5A9.4 9.4 0 01.6 13l.54 1a15 15 0 005.23-4.62 8.14 8.14 0 001.5-5 4.89 4.89 0 00-.25-1.6A3.87 3.87 0 003.88 0z"/></symbol></svg>