<svg xmlns="http://www.w3.org/2000/svg" width="20" height="20" viewBox="0 0 20 20"><path d="M10,0A10,10,0,1,0,20,10,10,10,0,0,0,10,0Zm.5,14.85v.71a.19.19,0,0,1-.18.18H9.69a.18.18,0,0,1-.18-.18v-.7c-2-.15-2.91-1.28-3-2.51a.17.17,0,0,1,.17-.19h1a.17.17,0,0,1,.17.15,1.72,1.72,0,0,0,1.66,1.36V10.49L9,10.35A2.59,2.59,0,0,1,6.71,7.83c0-1.62,1.23-2.5,2.81-2.65V4.44a.18.18,0,0,1,.18-.18h.63a.18.18,0,0,1,.18.18v.73a2.84,2.84,0,0,1,2.81,2.44.18.18,0,0,1-.18.19h-1A.17.17,0,0,1,12,7.65a1.57,1.57,0,0,0-1.46-1.3v3l.56.13c1.45.36,2.44,1,2.44,2.6S12.25,14.7,10.5,14.85ZM8.09,7.73c0,.57.35,1,1.11,1.28l.33.11V6.35C8.71,6.46,8.09,6.92,8.09,7.73Zm2.6,3-.19-.05v3c.95-.08,1.6-.6,1.6-1.48C12.1,11.52,11.75,11.07,10.69,10.75Z"/></svg>