<svg xmlns="http://www.w3.org/2000/svg" width="12" height="18" viewBox="0 0 12 18"><path d="M6,18a1.45,1.45,0,1,1,1.5-1.45A1.48,1.48,0,0,1,6,18Zm2.36-8a1.84,1.84,0,0,0-.84.64,1.69,1.69,0,0,0-.32,1v.82a.29.29,0,0,1-.3.29H5.1a.29.29,0,0,1-.3-.29V11.7a4,4,0,0,1,.75-2.35,4.14,4.14,0,0,1,2-1.49A3,3,0,0,0,9.6,5.23C9.6,3.63,8,2.32,6,2.32S2.4,3.63,2.4,5.23V5.5a.29.29,0,0,1-.3.29H.3A.3.3,0,0,1,0,5.5V5.23A4.85,4.85,0,0,1,1.82,1.48,6.41,6.41,0,0,1,6,0a6.51,6.51,0,0,1,4.19,1.48A4.91,4.91,0,0,1,12,5.23,5.25,5.25,0,0,1,8.36,10Z"/></svg>